# xmcd
#
# Track frame offsets:
#	150
#	9925
#	23037
#	34625
#	45312
#	57362
#	67375
#	80662
#	92587
#	103250
#	114650
#	126775
#	142012
#	155237
#	164325
#	173750
#
# Disc length: 2472 seconds
#
# Revision: 0
# Processed by: cddbd v1.5.1PL0 Copyright (c) Steve Scherf et al.
# Submitted via: dBpowerAMP V4.0
#
DISCID=d809a610
DTITLE=Frankie Laine - The very best of Frankie Laine
DYEAR=1993
DGENRE=Ballad
TTITLE0=I believe
TTITLE1=Rain, rain, rain
TTITLE2=Strange lady in town
TTITLE3=Hey Joe
TTITLE4=Hawkeye
TTITLE5=Tell me a story (with Jim Boyd)
TTITLE6=Cool water
TTITLE7=Answer me, my love
TTITLE8=A woman in love
TTITLE9=Wher the wind blows
TTITLE10=High noon (do not forsake me)
TTITLE11=The Kid's last fight
TTITLE12=Cry of the wild goose
TTITLE13=Sugarbush (with Doris Day)
TTITLE14=Rawhide
TTITLE15=Blowing wild
EXTD=
EXTT0=
EXTT1=
EXTT2=
EXTT3=
EXTT4=
EXTT5=
EXTT6=
EXTT7=
EXTT8=
EXTT9=
EXTT10=
EXTT11=
EXTT12=
EXTT13=
EXTT14=
EXTT15=
PLAYORDER=
